<svg width="36" height="42" viewBox="0 0 36 42" fill="none" xmlns="http://www.w3.org/2000/svg">
<path d="M11.6134 0H25.7918C26.1786 0 26.5234 0.186386 26.7394 0.473764L35.644 10.1075C35.8452 10.3256 35.9569 10.6114 35.9568 10.9081L35.9634 31.532C35.9634 32.9788 35.3681 34.2983 34.4116 35.2565L34.4058 35.2622C33.4476 36.2179 32.129 36.8116 30.6838 36.8116H29.0368C29.0121 38.2271 28.4226 39.5129 27.4866 40.4482C26.5292 41.4055 25.208 42 23.7572 42H5.27956C3.82871 42 2.50759 41.4055 1.55102 40.4482C0.594464 39.4924 0 38.1721 0 36.7204V11.156C0 9.70437 0.593642 8.38243 1.5502 7.42669C2.50594 6.47013 3.82789 5.87649 5.27956 5.87649H6.33383V5.27956C6.33383 3.82789 6.92747 2.50594 7.88403 1.5502C8.83977 0.593642 10.1617 0 11.6134 0ZM14.1202 20.6059C13.4657 20.6059 12.9353 20.0746 12.9353 19.4202C12.9353 18.7667 13.4657 18.2354 14.1202 18.2354H28.1771C28.8315 18.2354 29.3627 18.7667 29.3627 19.4202C29.3627 20.0746 28.8315 20.6059 28.1771 20.6059H14.1202ZM14.1202 26.9167C13.4657 26.9167 12.9353 26.3863 12.9353 25.7319C12.9353 25.0783 13.4657 24.5471 14.1202 24.5471H25.3214C25.9758 24.5471 26.5062 25.0783 26.5062 25.7319C26.5062 26.3863 25.9758 26.9167 25.3214 26.9167H14.1202ZM26.4643 3.64889V7.67466C26.5431 8.68459 26.8921 9.47283 27.503 9.99504C28.1434 10.5419 29.1107 10.8498 30.3956 10.8728L33.1372 10.8695L26.4643 3.64889ZM33.5938 13.2375L30.3776 13.2326C28.5063 13.2038 27.03 12.6989 25.9667 11.7899C24.8599 10.8424 24.2342 9.50239 24.1062 7.84626L24.0947 7.68205V2.36964H11.6134C10.8145 2.36964 10.0854 2.69808 9.55822 3.22439C9.03191 3.75153 8.70347 4.48065 8.70347 5.27956V31.532C8.70347 32.3318 9.03273 33.0601 9.55904 33.5864C10.0862 34.1135 10.8145 34.4419 11.6134 34.4419H30.6838C31.4844 34.4419 32.2127 34.1151 32.7374 33.5897C33.267 33.0609 33.5938 32.3334 33.5938 31.532V13.2375ZM26.6655 36.8116H11.6134C10.1617 36.8116 8.84059 36.2171 7.88485 35.2614C6.92829 34.3048 6.33383 32.9845 6.33383 31.532V8.24613H5.27956C4.47983 8.24613 3.75153 8.57456 3.22439 9.10088C2.69808 9.62801 2.36964 10.3563 2.36964 11.156V36.7204C2.36964 37.5194 2.6989 38.2468 3.22521 38.774C3.75317 39.3019 4.48147 39.6304 5.27956 39.6304H23.7572C24.5553 39.6304 25.2836 39.3019 25.8115 38.774C26.3181 38.2674 26.6425 37.5744 26.6655 36.8116Z" fill="#F5F4F4"/>
</svg>
