<svg width="30" height="31" viewBox="0 0 30 31" fill="none" xmlns="http://www.w3.org/2000/svg">
<path d="M27.3796 15.1209C27.3942 14.7832 27.5386 14.4642 27.7827 14.2304C28.0268 13.9966 28.3518 13.8661 28.6898 13.8661C29.0278 13.8661 29.3528 13.9966 29.5969 14.2304C29.841 14.4642 29.9854 14.7832 30 15.1209C29.9997 18.0996 29.1123 21.0108 27.4511 23.4834C25.7899 25.9559 23.43 27.8778 20.6723 29.004C17.9147 30.1302 14.8841 30.4098 11.967 29.807C9.04979 29.2043 6.37819 27.7465 4.29271 25.6196V28.6412C4.29271 28.989 4.15454 29.3226 3.9086 29.5685C3.66266 29.8145 3.32909 29.9526 2.98128 29.9526C2.63347 29.9526 2.29991 29.8145 2.05397 29.5685C1.80803 29.3226 1.66986 28.989 1.66986 28.6412V21.908C1.67309 21.5623 1.81268 21.2318 2.05827 20.9885C2.30386 20.7452 2.63558 20.6087 2.98128 20.6088H9.78795C9.96478 20.6011 10.1413 20.6294 10.3069 20.6917C10.4726 20.7541 10.6238 20.8494 10.7517 20.9718C10.8795 21.0943 10.9812 21.2413 11.0507 21.404C11.1202 21.5668 11.156 21.742 11.156 21.919C11.156 22.096 11.1202 22.2711 11.0507 22.4339C10.9812 22.5967 10.8795 22.7437 10.7517 22.8661C10.6238 22.9885 10.4726 23.0838 10.3069 23.1462C10.1413 23.2086 9.96478 23.2368 9.78795 23.2292H5.62859C7.2803 25.1387 9.47636 26.4976 11.9223 27.1237C14.3682 27.7497 16.9471 27.6129 19.3131 26.7317C21.6791 25.8505 23.7191 24.2669 25.1596 22.1934C26.6001 20.1198 27.3721 17.6554 27.3723 15.1306L27.3796 15.1209ZM26.0829 1.36805C26.0752 1.19123 26.1034 1.01469 26.1658 0.849072C26.2282 0.68345 26.3235 0.532172 26.4459 0.40435C26.5683 0.276528 26.7154 0.174808 26.8781 0.105316C27.0409 0.0358247 27.2161 0 27.3931 0C27.57 0 27.7452 0.0358247 27.908 0.105316C28.0707 0.174808 28.2178 0.276528 28.3402 0.40435C28.4626 0.532172 28.5579 0.68345 28.6203 0.849072C28.6827 1.01469 28.7109 1.19123 28.7033 1.36805V8.16494C28.7026 8.51022 28.5659 8.84132 28.3226 9.08638C28.0794 9.33144 27.7493 9.47069 27.4041 9.47391H20.661C20.4842 9.48156 20.3077 9.45333 20.142 9.39093C19.9764 9.32853 19.8251 9.23326 19.6973 9.11084C19.5695 8.98842 19.4678 8.8414 19.3983 8.67863C19.3288 8.51586 19.293 8.3407 19.293 8.16371C19.293 7.98673 19.3288 7.81157 19.3983 7.6488C19.4678 7.48603 19.5695 7.339 19.6973 7.21659C19.8251 7.09417 19.9764 6.9989 20.142 6.9365C20.3077 6.8741 20.4842 6.84587 20.661 6.85352H24.2234C22.5506 4.98606 20.3502 3.67049 17.9134 3.08086C15.4766 2.49123 12.9182 2.65534 10.5767 3.55147C8.23523 4.44759 6.22099 6.03351 4.80049 8.09939C3.38 10.1653 2.6202 12.6137 2.62162 15.1209C2.62926 15.2977 2.60104 15.4742 2.53864 15.6398C2.47624 15.8055 2.38096 15.9567 2.25855 16.0846C2.13613 16.2124 1.98911 16.3141 1.82634 16.3836C1.66356 16.4531 1.48841 16.4889 1.31142 16.4889C1.13444 16.4889 0.959281 16.4531 0.796508 16.3836C0.633735 16.3141 0.486712 16.2124 0.364296 16.0846C0.24188 15.9567 0.146603 15.8055 0.0842057 15.6398C0.0218081 15.4742 -0.00641945 15.2977 0.0012234 15.1209C0.00261946 12.5097 0.685581 9.94415 1.98257 7.6779C3.27955 5.41164 5.14564 3.52319 7.39628 2.1993C9.64693 0.875407 12.2042 0.161931 14.8151 0.129428C17.4261 0.0969248 20.0003 0.746521 22.2832 2.01398C23.7027 2.80414 24.9857 3.81782 26.0829 5.01606V1.36805Z" fill="#F5F4F4"/>
</svg>
